{
    "asset" : {
        "generator" : "Khronos glTF Blender I/O v3.4.50",
        "version" : "2.0"
    },
    "scene" : 0,
    "scenes" : [
        {
            "name" : "Scene",
            "nodes" : [
                1
            ]
        }
    ],
    "nodes" : [
        {
            "mesh" : 0,
            "name" : "chair",
            "translation" : [
                0,
                27.11481475830078,
                0
            ]
        },
        {
            "children" : [
                0
            ],
            "name" : "chair_grp"
        }
    ],
    "materials" : [
        {
            "doubleSided" : true,
            "name" : "chair_mat.001",
            "normalTexture" : {
                "index" : 0
            },
            "occlusionTexture" : {
                "index" : 1
            },
            "pbrMetallicRoughness" : {
                "baseColorTexture" : {
                    "index" : 2
                },
                "metallicRoughnessTexture" : {
                    "index" : 1
                }
            }
        }
    ],
    "meshes" : [
        {
            "name" : "Mesh",
            "primitives" : [
                {
                    "attributes" : {
                        "POSITION" : 0,
                        "TEXCOORD_0" : 1,
                        "TEXCOORD_1" : 2,
                        "NORMAL" : 3
                    },
                    "indices" : 4,
                    "material" : 0
                }
            ]
        }
    ],
    "textures" : [
        {
            "sampler" : 0,
            "source" : 0
        },
        {
            "sampler" : 0,
            "source" : 1
        },
        {
            "sampler" : 0,
            "source" : 2
        }
    ],
    "images" : [
        {
            "mimeType" : "image/png",
            "name" : "chair_Normal",
            "uri" : "chair_Normal.png"
        },
        {
            "mimeType" : "image/png",
            "name" : "chair_AO-chair_Roughness-chair_Metallic",
            "uri" : "chair_AO-chair_Roughness-chair_Metallic.png"
        },
        {
            "mimeType" : "image/png",
            "name" : "chair_bcolor",
            "uri" : "chair_bcolor.png"
        }
    ],
    "accessors" : [
        {
            "bufferView" : 0,
            "componentType" : 5126,
            "count" : 5400,
            "max" : [
                17.337644577026367,
                27.11481475830078,
                17.483089447021484
            ],
            "min" : [
                -17.337644577026367,
                -27.11481475830078,
                -17.483089447021484
            ],
            "type" : "VEC3"
        },
        {
            "bufferView" : 1,
            "componentType" : 5126,
            "count" : 5400,
            "type" : "VEC2"
        },
        {
            "bufferView" : 2,
            "componentType" : 5126,
            "count" : 5400,
            "type" : "VEC2"
        },
        {
            "bufferView" : 3,
            "componentType" : 5126,
            "count" : 5400,
            "type" : "VEC3"
        },
        {
            "bufferView" : 4,
            "componentType" : 5123,
            "count" : 28500,
            "type" : "SCALAR"
        }
    ],
    "bufferViews" : [
        {
            "buffer" : 0,
            "byteLength" : 64800,
            "byteOffset" : 0,
            "target" : 34962
        },
        {
            "buffer" : 0,
            "byteLength" : 43200,
            "byteOffset" : 64800,
            "target" : 34962
        },
        {
            "buffer" : 0,
            "byteLength" : 43200,
            "byteOffset" : 108000,
            "target" : 34962
        },
        {
            "buffer" : 0,
            "byteLength" : 64800,
            "byteOffset" : 151200,
            "target" : 34962
        },
        {
            "buffer" : 0,
            "byteLength" : 57000,
            "byteOffset" : 216000,
            "target" : 34963
        }
    ],
    "samplers" : [
        {
            "magFilter" : 9729,
            "minFilter" : 9987
        }
    ],
    "buffers" : [
        {
            "byteLength" : 273000,
            "uri" : "chair.bin"
        }
    ]
}
