{
  "asset": {
    "version": "2.0",
    "generator": "THREE.GLTFExporter r166"
  },
  "scenes": [
    {
      "name": "AuxScene",
      "nodes": [
        1
      ]
    }
  ],
  "scene": 0,
  "nodes": [
    {
      "name": "UPSDoor_001",
      "extras": {
        "name": "UPSDoor_001"
      },
      "mesh": 1
    },
    {
      "matrix": [
        0.0005756147571094995,
        0,
        -2.199999924697192,
        0,
        0,
        2.2,
        0,
        0,
        2.199999924697192,
        0,
        0.0005756147571094995,
        0,
        -2.155861500124723,
        0.3000001907348633,
        3.92703844059173,
        1
      ],
      "name": "UPS_001",
      "extras": {
        "name": "UPS_001",
        "digitalTwin": {
          "name": "UPS_001",
          "action": {
            "url": "/file/UPS01.csv",
            "type": "chart",
            "title": "입력 전압 R/S/T (V, Voltage)",
            "margin": [
              10,
              10,
              38,
              38
            ],
            "regend": [
              "R Voltage",
              "S Voltage",
              "T Voltage"
            ],
            "target": "LineD3",
            "descript": "UPS 입력 전압 평균을 R/S/T로 분리하여 표출",
            "dataIndex": [
              2,
              5,
              8
            ]
          },
          "dtname": "UPS#1",
          "display": "active"
        }
      },
      "mesh": 0,
      "children": [
        0
      ]
    }
  ],
  "bufferViews": [
    {
      "buffer": 0,
      "byteOffset": 0,
      "byteLength": 5256,
      "target": 34962,
      "byteStride": 12
    },
    {
      "buffer": 0,
      "byteOffset": 5256,
      "byteLength": 5256,
      "target": 34962,
      "byteStride": 12
    },
    {
      "buffer": 0,
      "byteOffset": 10512,
      "byteLength": 3504,
      "target": 34962,
      "byteStride": 8
    },
    {
      "buffer": 0,
      "byteOffset": 14016,
      "byteLength": 2064,
      "target": 34963
    },
    {
      "buffer": 0,
      "byteOffset": 16080,
      "byteLength": 1860,
      "target": 34962,
      "byteStride": 12
    },
    {
      "buffer": 0,
      "byteOffset": 17940,
      "byteLength": 1860,
      "target": 34962,
      "byteStride": 12
    },
    {
      "buffer": 0,
      "byteOffset": 19800,
      "byteLength": 1240,
      "target": 34962,
      "byteStride": 8
    },
    {
      "buffer": 0,
      "byteOffset": 21040,
      "byteLength": 720,
      "target": 34963
    }
  ],
  "buffers": [
    {
      "byteLength": 21760,
      "uri": "data:application/octet-stream;base64,"
    }
  ],
  "accessors": [
    {
      "bufferView": 0,
      "componentType": 5126,
      "count": 438,
      "max": [
        0.24500000476837158,
        1.399999976158142,
        0.4303208589553833
      ],
      "min": [
        -0.24500000476837158,
        -0.08429941534996033,
        -0.5196032524108887
      ],
      "type": "VEC3"
    },
    {
      "bufferView": 1,
      "componentType": 5126,
      "count": 438,
      "max": [
        1,
        1,
        1
      ],
      "min": [
        -1,
        -1,
        -1
      ],
      "type": "VEC3"
    },
    {
      "bufferView": 2,
      "componentType": 5126,
      "count": 438,
      "max": [
        1.0000396966934204,
        1
      ],
      "min": [
        0.00015963404439389706,
        0
      ],
      "type": "VEC2"
    },
    {
      "bufferView": 3,
      "componentType": 5123,
      "count": 1032,
      "max": [
        437
      ],
      "min": [
        0
      ],
      "type": "SCALAR"
    },
    {
      "bufferView": 4,
      "componentType": 5126,
      "count": 155,
      "max": [
        0.24500000476837158,
        1.399999976158142,
        0.48486170172691345
      ],
      "min": [
        -0.24500000476837158,
        0,
        0.43044906854629517
      ],
      "type": "VEC3"
    },
    {
      "bufferView": 5,
      "componentType": 5126,
      "count": 155,
      "max": [
        1,
        1,
        1
      ],
      "min": [
        -1,
        -1,
        -1
      ],
      "type": "VEC3"
    },
    {
      "bufferView": 6,
      "componentType": 5126,
      "count": 155,
      "max": [
        0.9893470406532288,
        1
      ],
      "min": [
        0.002234846353530884,
        0
      ],
      "type": "VEC2"
    },
    {
      "bufferView": 7,
      "componentType": 5123,
      "count": 360,
      "max": [
        154
      ],
      "min": [
        0
      ],
      "type": "SCALAR"
    }
  ],
  "materials": [
    {
      "pbrMetallicRoughness": {
        "metallicFactor": 0,
        "roughnessFactor": 0.25,
        "baseColorTexture": {
          "index": 0,
          "texCoord": 0
        }
      },
      "doubleSided": true,
      "name": "ups",
      "extensions": {
        "KHR_materials_specular": {
          "specularFactor": 1,
          "specularColorFactor": [
            2,
            2,
            2
          ]
        }
      }
    },
    {
      "pbrMetallicRoughness": {
        "metallicFactor": 0,
        "roughnessFactor": 0.25,
        "baseColorTexture": {
          "index": 1,
          "texCoord": 0
        }
      },
      "doubleSided": true,
      "name": "UPSDoor",
      "extensions": {
        "KHR_materials_specular": {
          "specularFactor": 1,
          "specularColorFactor": [
            2,
            2,
            2
          ]
        }
      }
    }
  ],
  "textures": [
    {
      "sampler": 0,
      "source": 0,
      "name": "ups"
    },
    {
      "sampler": 1,
      "source": 1,
      "name": "ups_Door"
    }
  ],
  "samplers": [
    {
      "magFilter": 9729,
      "minFilter": 9987,
      "wrapS": 10497,
      "wrapT": 10497
    },
    {
      "magFilter": 9729,
      "minFilter": 9987,
      "wrapS": 10497,
      "wrapT": 10497
    }
  ],
  "images": [
    {
      "mimeType": "image/jpeg",
      "uri": "data:image/jpeg;base64,"
    },
    {
      "mimeType": "image/jpeg",
      "uri": "data:image/jpeg;base64,"
    }
  ],
  "meshes": [
    {
      "primitives": [
        {
          "mode": 4,
          "attributes": {
            "POSITION": 0,
            "NORMAL": 1,
            "TEXCOORD_0": 2
          },
          "indices": 3,
          "material": 0
        }
      ]
    },
    {
      "primitives": [
        {
          "mode": 4,
          "attributes": {
            "POSITION": 4,
            "NORMAL": 5,
            "TEXCOORD_0": 6
          },
          "indices": 7,
          "material": 1
        }
      ]
    }
  ],
  "extensionsUsed": [
    "KHR_materials_specular"
  ]
}