{
    "asset" : {
        "generator" : "Khronos glTF Blender I/O v3.4.50",
        "version" : "2.0"
    },
    "scene" : 0,
    "scenes" : [
        {
            "name" : "ddddddddd",
            "nodes" : [
                1
            ]
        }
    ],
    "nodes" : [
        {
            "mesh" : 0,
            "name" : "old_wooden_chair",
            "translation" : [
                5.7220458984375e-06,
                86.24559783935547,
                0
            ]
        },
        {
            "children" : [
                0
            ],
            "name" : "old_wooden_chair_grp"
        }
    ],
    "materials" : [
        {
            "doubleSided" : true,
            "name" : "old_wooden_chair_mat.001",
            "normalTexture" : {
                "index" : 0
            },
            "occlusionTexture" : {
                "index" : 1
            },
            "pbrMetallicRoughness" : {
                "baseColorTexture" : {
                    "index" : 2
                },
                "metallicRoughnessTexture" : {
                    "index" : 1
                }
            }
        }
    ],
    "meshes" : [
        {
            "name" : "Mesh",
            "primitives" : [
                {
                    "attributes" : {
                        "POSITION" : 0,
                        "TEXCOORD_0" : 1,
                        "NORMAL" : 2
                    },
                    "indices" : 3,
                    "material" : 0
                }
            ]
        }
    ],
    "textures" : [
        {
            "sampler" : 0,
            "source" : 0
        },
        {
            "sampler" : 0,
            "source" : 1
        },
        {
            "sampler" : 0,
            "source" : 2
        }
    ],
    "images" : [
        {
            "mimeType" : "image/png",
            "name" : "old_wooden_chair_Normal",
            "uri" : "old_wooden_chair_Normal.png"
        },
        {
            "mimeType" : "image/png",
            "name" : "old_wooden_chair_AO-old_wooden_chair_Roughness-old_wooden_chair_Metallic",
            "uri" : "old_wooden_chair_AO-old_wooden_chair_Roughness-old_wooden_chair_Metallic.png"
        },
        {
            "mimeType" : "image/png",
            "name" : "old_wooden_chair_bcolor",
            "uri" : "old_wooden_chair_bcolor.png"
        }
    ],
    "accessors" : [
        {
            "bufferView" : 0,
            "componentType" : 5126,
            "count" : 2663,
            "max" : [
                41.884220123291016,
                86.24559783935547,
                45.6551399230957
            ],
            "min" : [
                -41.88423156738281,
                -86.24559783935547,
                -45.65514373779297
            ],
            "type" : "VEC3"
        },
        {
            "bufferView" : 1,
            "componentType" : 5126,
            "count" : 2663,
            "type" : "VEC2"
        },
        {
            "bufferView" : 2,
            "componentType" : 5126,
            "count" : 2663,
            "type" : "VEC3"
        },
        {
            "bufferView" : 3,
            "componentType" : 5123,
            "count" : 2676,
            "type" : "SCALAR"
        }
    ],
    "bufferViews" : [
        {
            "buffer" : 0,
            "byteLength" : 31956,
            "byteOffset" : 0,
            "target" : 34962
        },
        {
            "buffer" : 0,
            "byteLength" : 21304,
            "byteOffset" : 31956,
            "target" : 34962
        },
        {
            "buffer" : 0,
            "byteLength" : 31956,
            "byteOffset" : 53260,
            "target" : 34962
        },
        {
            "buffer" : 0,
            "byteLength" : 5352,
            "byteOffset" : 85216,
            "target" : 34963
        }
    ],
    "samplers" : [
        {
            "magFilter" : 9729,
            "minFilter" : 9987
        }
    ],
    "buffers" : [
        {
            "byteLength" : 90568,
            "uri" : "old_wooden_chair.bin"
        }
    ]
}
